{
	"asset":{
		"generator":"Khronos glTF Blender I/O v5.0.21",
		"version":"2.0"
	},
	"extensionsUsed":[
		"KHR_lights_punctual"
	],
	"extensionsRequired":[
		"KHR_lights_punctual"
	],
	"extensions":{
		"KHR_lights_punctual":{
			"lights":[
				{
					"color":[
						1,
						1,
						1
					],
					"intensity":54351.41306588226,
					"spot":{
						"innerConeAngle":0.556323685321221,
						"outerConeAngle":0.6544984579086304
					},
					"type":"spot",
					"name":"Light"
				}
			]
		}
	},
	"scene":0,
	"scenes":[
		{
			"name":"Scene",
			"nodes":[
				0,
				1,
				2,
				3,
				4,
				5,
				6
			]
		}
	],
	"nodes":[
		{
			"extensions":{
				"KHR_lights_punctual":{
					"light":0
				}
			},
			"name":"Light",
			"rotation":[
				-0.17858396470546722,
				0.29530519247055054,
				0.6213187575340271,
				0.7034668326377869
			],
			"scale":[
				1.5292482376098633,
				1.5292481184005737,
				1.5292478799819946
			],
			"translation":[
				5.654831886291504,
				3.1002464294433594,
				-1.4036273956298828
			]
		},
		{
			"camera":0,
			"name":"Camera",
			"rotation":[
				0.017340444028377533,
				-0.13507016003131866,
				-0.003724378068000078,
				0.9906772971153259
			],
			"translation":[
				0.008154943585395813,
				0.31403064727783203,
				5.922973155975342
			]
		},
		{
			"mesh":0,
			"name":"Ravnina",
			"scale":[
				5.726318836212158,
				5.726318836212158,
				5.726318836212158
			],
			"translation":[
				2.4215645790100098,
				-0.20270958542823792,
				-2.7668211460113525
			]
		},
		{
			"mesh":1,
			"name":"Besedilo",
			"rotation":[
				0.7071068286895752,
				0,
				0,
				0.7071068286895752
			],
			"translation":[
				0,
				0.009314958937466145,
				1.4112515449523926
			]
		},
		{
			"mesh":2,
			"name":"Besedilo.001",
			"rotation":[
				0.7071068286895752,
				0,
				0,
				0.7071068286895752
			],
			"translation":[
				0.6556073427200317,
				-0.060064539313316345,
				-0.8737345933914185
			]
		},
		{
			"mesh":3,
			"name":"Besedilo.002",
			"rotation":[
				0.7058179378509521,
				0.042674317955970764,
				0.042674317955970764,
				0.7058178782463074
			],
			"translation":[
				2.0278308391571045,
				5.5420707212761045e-05,
				-3.3253469467163086
			]
		},
		{
			"mesh":4,
			"name":"Suzana",
			"rotation":[
				-0.22570402920246124,
				-0.4279037117958069,
				-0.23312073945999146,
				0.8435702919960022
			],
			"scale":[
				0.9452139139175415,
				0.9452141523361206,
				0.945214033126831
			],
			"translation":[
				5.085694313049316,
				0.45226389169692993,
				-5.482395172119141
			]
		}
	],
	"cameras":[
		{
			"name":"Camera",
			"perspective":{
				"aspectRatio":1,
				"yfov":0.6911112070083618,
				"zfar":100,
				"znear":0.10000000149011612
			},
			"type":"perspective"
		}
	],
	"animations":[
		{
			"channels":[
				{
					"sampler":0,
					"target":{
						"node":1,
						"path":"translation"
					}
				},
				{
					"sampler":1,
					"target":{
						"node":1,
						"path":"rotation"
					}
				},
				{
					"sampler":2,
					"target":{
						"node":1,
						"path":"scale"
					}
				}
			],
			"name":"CameraAkcija",
			"samplers":[
				{
					"input":20,
					"interpolation":"LINEAR",
					"output":21
				},
				{
					"input":20,
					"interpolation":"LINEAR",
					"output":22
				},
				{
					"input":23,
					"interpolation":"STEP",
					"output":24
				}
			]
		}
	],
	"materials":[
		{
			"doubleSided":true,
			"name":"Material.005",
			"pbrMetallicRoughness":{
				"baseColorTexture":{
					"index":0
				},
				"metallicFactor":0,
				"roughnessFactor":0.5
			}
		},
		{
			"doubleSided":true,
			"name":"Material.001",
			"pbrMetallicRoughness":{
				"baseColorTexture":{
					"index":1
				},
				"metallicFactor":0
			}
		},
		{
			"doubleSided":true,
			"name":"Material.002",
			"pbrMetallicRoughness":{
				"baseColorTexture":{
					"index":2
				},
				"metallicFactor":0
			}
		},
		{
			"doubleSided":true,
			"name":"Material.003",
			"pbrMetallicRoughness":{
				"baseColorTexture":{
					"index":3
				},
				"metallicFactor":0
			}
		},
		{
			"doubleSided":true,
			"name":"Material.004",
			"pbrMetallicRoughness":{
				"baseColorTexture":{
					"index":4
				},
				"metallicFactor":0
			}
		}
	],
	"meshes":[
		{
			"name":"Ravnina",
			"primitives":[
				{
					"attributes":{
						"POSITION":0,
						"NORMAL":1,
						"TEXCOORD_0":2
					},
					"indices":3,
					"material":0
				}
			]
		},
		{
			"name":"Besedilo",
			"primitives":[
				{
					"attributes":{
						"POSITION":4,
						"NORMAL":5,
						"TEXCOORD_0":6
					},
					"indices":7,
					"material":1
				}
			]
		},
		{
			"name":"Besedilo.001",
			"primitives":[
				{
					"attributes":{
						"POSITION":8,
						"NORMAL":9,
						"TEXCOORD_0":10
					},
					"indices":11,
					"material":2
				}
			]
		},
		{
			"name":"Besedilo.002",
			"primitives":[
				{
					"attributes":{
						"POSITION":12,
						"NORMAL":13,
						"TEXCOORD_0":14
					},
					"indices":15,
					"material":3
				}
			]
		},
		{
			"name":"Suzana",
			"primitives":[
				{
					"attributes":{
						"POSITION":16,
						"NORMAL":17,
						"TEXCOORD_0":18
					},
					"indices":19,
					"material":4
				}
			]
		}
	],
	"textures":[
		{
			"sampler":0,
			"source":0
		},
		{
			"sampler":0,
			"source":1
		},
		{
			"sampler":0,
			"source":2
		},
		{
			"sampler":0,
			"source":3
		},
		{
			"sampler":0,
			"source":4
		}
	],
	"images":[
		{
			"mimeType":"image/jpeg",
			"name":"gravel_concrete_03_diff_1k",
			"uri":"gravel_concrete_03_diff_1k.jpg"
		},
		{
			"mimeType":"image/png",
			"name":"red",
			"uri":"red.png"
		},
		{
			"mimeType":"image/png",
			"name":"green",
			"uri":"green.png"
		},
		{
			"mimeType":"image/png",
			"name":"blue",
			"uri":"blue.png"
		},
		{
			"mimeType":"image/jpeg",
			"name":"wood_table_diff_1k",
			"uri":"wood_table_diff_1k.jpg"
		}
	],
	"accessors":[
		{
			"bufferView":0,
			"componentType":5126,
			"count":16512,
			"max":[
				1,
				0.04997555911540985,
				1
			],
			"min":[
				-1,
				0,
				-1
			],
			"type":"VEC3"
		},
		{
			"bufferView":1,
			"componentType":5126,
			"count":16512,
			"type":"VEC3"
		},
		{
			"bufferView":2,
			"componentType":5126,
			"count":16512,
			"type":"VEC2"
		},
		{
			"bufferView":3,
			"componentType":5123,
			"count":30720,
			"type":"SCALAR"
		},
		{
			"bufferView":4,
			"componentType":5126,
			"count":26,
			"max":[
				0.48000001907348633,
				0.07999999821186066,
				0
			],
			"min":[
				0.07400000095367432,
				-0.07999999821186066,
				-0.6820000410079956
			],
			"type":"VEC3"
		},
		{
			"bufferView":5,
			"componentType":5126,
			"count":26,
			"type":"VEC3"
		},
		{
			"bufferView":6,
			"componentType":5126,
			"count":26,
			"type":"VEC2"
		},
		{
			"bufferView":7,
			"componentType":5123,
			"count":60,
			"type":"SCALAR"
		},
		{
			"bufferView":8,
			"componentType":5126,
			"count":410,
			"max":[
				0.6730000376701355,
				0.07999999821186066,
				0.009000000543892384
			],
			"min":[
				0.05000000074505806,
				-0.07999999821186066,
				-0.6910000443458557
			],
			"type":"VEC3"
		},
		{
			"bufferView":9,
			"componentType":5126,
			"count":410,
			"type":"VEC3"
		},
		{
			"bufferView":10,
			"componentType":5126,
			"count":410,
			"type":"VEC2"
		},
		{
			"bufferView":11,
			"componentType":5123,
			"count":1212,
			"type":"SCALAR"
		},
		{
			"bufferView":12,
			"componentType":5126,
			"count":62,
			"max":[
				0.7090000510215759,
				0.07999999821186066,
				0
			],
			"min":[
				0.07300000637769699,
				-0.07999999821186066,
				-0.6820000410079956
			],
			"type":"VEC3"
		},
		{
			"bufferView":13,
			"componentType":5126,
			"count":62,
			"type":"VEC3"
		},
		{
			"bufferView":14,
			"componentType":5126,
			"count":62,
			"type":"VEC2"
		},
		{
			"bufferView":15,
			"componentType":5123,
			"count":168,
			"type":"SCALAR"
		},
		{
			"bufferView":16,
			"componentType":5126,
			"count":1966,
			"max":[
				1.3671875,
				0.984375,
				0.8515625
			],
			"min":[
				-1.3671875,
				-0.984375,
				-0.8515625
			],
			"type":"VEC3"
		},
		{
			"bufferView":17,
			"componentType":5126,
			"count":1966,
			"type":"VEC3"
		},
		{
			"bufferView":18,
			"componentType":5126,
			"count":1966,
			"type":"VEC2"
		},
		{
			"bufferView":19,
			"componentType":5123,
			"count":2904,
			"type":"SCALAR"
		},
		{
			"bufferView":20,
			"componentType":5126,
			"count":287,
			"max":[
				11.958333333333334
			],
			"min":[
				0.041666666666666664
			],
			"type":"SCALAR"
		},
		{
			"bufferView":21,
			"componentType":5126,
			"count":287,
			"type":"VEC3"
		},
		{
			"bufferView":22,
			"componentType":5126,
			"count":287,
			"type":"VEC4"
		},
		{
			"bufferView":23,
			"componentType":5126,
			"count":2,
			"max":[
				11.958333333333334
			],
			"min":[
				0.041666666666666664
			],
			"type":"SCALAR"
		},
		{
			"bufferView":24,
			"componentType":5126,
			"count":2,
			"type":"VEC3"
		}
	],
	"bufferViews":[
		{
			"buffer":0,
			"byteLength":198144,
			"byteOffset":0,
			"target":34962
		},
		{
			"buffer":0,
			"byteLength":198144,
			"byteOffset":198144,
			"target":34962
		},
		{
			"buffer":0,
			"byteLength":132096,
			"byteOffset":396288,
			"target":34962
		},
		{
			"buffer":0,
			"byteLength":61440,
			"byteOffset":528384,
			"target":34963
		},
		{
			"buffer":0,
			"byteLength":312,
			"byteOffset":589824,
			"target":34962
		},
		{
			"buffer":0,
			"byteLength":312,
			"byteOffset":590136,
			"target":34962
		},
		{
			"buffer":0,
			"byteLength":208,
			"byteOffset":590448,
			"target":34962
		},
		{
			"buffer":0,
			"byteLength":120,
			"byteOffset":590656,
			"target":34963
		},
		{
			"buffer":0,
			"byteLength":4920,
			"byteOffset":590776,
			"target":34962
		},
		{
			"buffer":0,
			"byteLength":4920,
			"byteOffset":595696,
			"target":34962
		},
		{
			"buffer":0,
			"byteLength":3280,
			"byteOffset":600616,
			"target":34962
		},
		{
			"buffer":0,
			"byteLength":2424,
			"byteOffset":603896,
			"target":34963
		},
		{
			"buffer":0,
			"byteLength":744,
			"byteOffset":606320,
			"target":34962
		},
		{
			"buffer":0,
			"byteLength":744,
			"byteOffset":607064,
			"target":34962
		},
		{
			"buffer":0,
			"byteLength":496,
			"byteOffset":607808,
			"target":34962
		},
		{
			"buffer":0,
			"byteLength":336,
			"byteOffset":608304,
			"target":34963
		},
		{
			"buffer":0,
			"byteLength":23592,
			"byteOffset":608640,
			"target":34962
		},
		{
			"buffer":0,
			"byteLength":23592,
			"byteOffset":632232,
			"target":34962
		},
		{
			"buffer":0,
			"byteLength":15728,
			"byteOffset":655824,
			"target":34962
		},
		{
			"buffer":0,
			"byteLength":5808,
			"byteOffset":671552,
			"target":34963
		},
		{
			"buffer":0,
			"byteLength":1148,
			"byteOffset":677360
		},
		{
			"buffer":0,
			"byteLength":3444,
			"byteOffset":678508
		},
		{
			"buffer":0,
			"byteLength":4592,
			"byteOffset":681952
		},
		{
			"buffer":0,
			"byteLength":8,
			"byteOffset":686544
		},
		{
			"buffer":0,
			"byteLength":24,
			"byteOffset":686552
		}
	],
	"samplers":[
		{
			"magFilter":9729,
			"minFilter":9987
		}
	],
	"buffers":[
		{
			"byteLength":686576,
			"uri":"scena.bin"
		}
	]
}
