<?xml version="1.0" encoding="UTF-8" standalone="no"?>
<svg
   id="Remake"
   viewBox="0 0 1920 1080"
   version="1.1"
   sodipodi:docname="Maserati-Logo-Final.svg"
   xml:space="preserve"
   inkscape:version="1.4.2 (ebf0e940, 2025-05-08)"
   xmlns:inkscape="http://www.inkscape.org/namespaces/inkscape"
   xmlns:sodipodi="http://sodipodi.sourceforge.net/DTD/sodipodi-0.dtd"
   xmlns="http://www.w3.org/2000/svg"
   xmlns:svg="http://www.w3.org/2000/svg"><defs
     id="defs9"><style
       type="text/css"
       id="style1">
   <![CDATA[
    .fil0 {fill:black}
   ]]>
  </style></defs><sodipodi:namedview
     id="namedview9"
     pagecolor="#ffffff"
     bordercolor="#000000"
     borderopacity="0.25"
     inkscape:showpageshadow="2"
     inkscape:pageopacity="0.0"
     inkscape:pagecheckerboard="0"
     inkscape:deskcolor="#d1d1d1"
     inkscape:zoom="0.26891272"
     inkscape:cx="924.09165"
     inkscape:cy="453.6788"
     inkscape:window-width="1512"
     inkscape:window-height="835"
     inkscape:window-x="0"
     inkscape:window-y="34"
     inkscape:window-maximized="1"
     inkscape:current-layer="layer3"
     showguides="false" /><g
     inkscape:groupmode="layer"
     id="layer1"
     inkscape:label="Background"><g
       style="clip-rule:evenodd;opacity:0.606;fill-rule:evenodd;image-rendering:optimizeQuality;shape-rendering:geometricPrecision;text-rendering:geometricPrecision"
       id="g9"
       transform="matrix(0.17447857,0,0,0.17696938,77.502718,176.8772)"
       sodipodi:insensitive="true"><g
         id="Layer_x0020_1"
         inkscape:label="Layer 1"
         inkscape:groupmode="layer">
  <metadata
   id="CorelCorpID_0Corel-Layer" />
  <path
   class="fil0"
   d="m 9614,3504 c -72,0 -145,0 -217,0 5,-11 10,-21 15,-31 36,-71 73,-94 153,-94 37,0 74,0 111,0 -20,41 -41,83 -62,125 z"
   id="path1-8" />
  <path
   class="fil0"
   d="m 9380,3987 c 66,-134 133,-268 199,-402 -72,0 -145,0 -217,0 -57,116 -115,231 -172,347 -20,39 -46,55 -92,55 -176,0 -352,0 -528,0 72,-143 143,-286 214,-430 30,-60 41,-64 112,-64 21,0 42,0 63,0 61,0 90,-17 115,-66 10,-20 19,-40 29,-59 -75,0 -150,0 -225,0 32,-65 65,-130 97,-195 -47,0 -95,0 -142,0 -62,0 -91,16 -115,65 -21,43 -43,87 -64,130 -40,0 -79,0 -119,0 -20,42 -41,83 -62,125 40,0 79,0 119,0 -25,49 -195,390 -219,439 -19,39 -46,55 -91,55 -157,0 -313,0 -469,0 83,-152 166,-304 249,-456 -57,0 -115,0 -172,0 -40,0 -57,13 -83,44 0,-33 -12,-44 -43,-44 -40,0 -80,0 -119,0 -196,0 -306,61 -391,216 -34,62 -68,124 -101,186 -22,39 -48,54 -92,54 -100,0 -201,0 -302,1 -109,0 -152,-16 -164,-74 -13,-61 14,-112 161,-209 28,-18 55,-36 83,-55 38,-25 54,-39 49,-66 -5,-25 -20,-53 -139,-53 -190,1 -379,1 -569,1 -60,0 -88,15 -115,65 -61,112 -123,224 -184,336 -21,39 -47,55 -91,55 -304,0 -608,0 -912,0 13,-38 26,-77 39,-115 152,0 303,0 455,0 90,0 127,-23 160,-99 14,-34 29,-69 43,-103 11,-25 20,-62 2,-90 -22,-32 -77,-49 -159,-49 -146,0 -292,0 -438,0 -140,0 -203,39 -252,154 -31,71 -61,143 -91,214 -31,73 -80,88 -150,88 -104,0 -208,0 -313,0 7,-10 14,-20 20,-30 62,-93 50,-196 -32,-284 -82,-86 -189,-116 -285,-142 -81,0 -162,0 -243,-1 -56,102 -111,204 -167,306 -70,128 -146,150 -280,150 -98,0 -196,0 -294,0 83,-152 166,-304 249,-456 -57,0 -115,0 -172,0 -41,0 -58,13 -83,44 0,-33 -12,-44 -44,-44 -39,0 -79,0 -118,0 -196,0 -306,61 -391,216 -34,62 -68,124 -101,186 -22,39 -47,54 -92,54 -149,0 -299,0 -448,0 127,-232 253,-464 380,-696 22,-40 -7,-90 -53,-90 -594,0 -1188,0 -1782,0 -121,0 -181,31 -238,128 257,0 513,0 770,0 -143,262 -286,524 -429,785 74,0 148,0 222,0 143,-261 286,-523 429,-784 103,0 206,0 308,0 -143,261 -286,523 -429,784 74,0 148,0 222,0 143,-261 286,-523 429,-784 103,0 206,0 308,0 -118,216 -236,432 -354,648 -16,29 -32,70 -15,99 15,24 51,37 105,37 194,0 389,0 584,0 29,0 41,-9 59,-30 0,23 19,30 42,30 335,0 670,0 1005,0 199,0 305,-58 391,-215 44,-80 88,-161 132,-242 2,1 12,3 14,3 158,30 238,89 245,179 3,37 -9,71 -33,98 -30,32 -75,50 -125,51 -101,0 -142,39 -181,126 283,0 567,0 851,0 28,0 41,-9 58,-30 1,23 20,30 43,30 419,0 838,0 1258,0 85,0 122,-22 164,-100 49,-89 98,-179 147,-269 34,-61 76,-85 149,-85 74,0 148,0 222,0 -38,26 -79,59 -111,91 -42,44 -83,103 -90,180 -6,54 8,100 38,134 29,32 73,49 125,49 173,0 345,0 518,0 28,0 41,-9 58,-30 0,23 20,30 43,30 362,0 725,0 1088,0 29,0 41,-9 59,-30 0,23 19,30 42,30 536,0 1073,0 1610,0 97,0 146,-31 164,-105 2,-8 4,-15 6,-23 -254,0 -508,0 -761,1 z M 4970,3717 c 22,-63 73,-69 119,-69 83,0 165,0 248,0 -6,17 -11,34 -17,51 -20,59 -66,64 -107,64 -86,0 -173,0 -259,0 6,-15 11,-31 16,-46 z m -2255,184 c -35,63 -75,86 -149,86 -41,0 -82,0 -123,0 44,-81 89,-161 133,-242 34,-62 75,-86 148,-86 41,0 82,0 123,0 -44,81 -88,162 -132,242 z m 4919,0 c -34,63 -74,86 -148,86 -41,0 -82,0 -123,0 44,-81 89,-161 133,-242 33,-62 75,-86 148,-86 41,0 82,0 123,0 -44,81 -88,162 -133,242 z"
   id="path2-6" />
  <path
   class="fil0"
   d="m 4870,2714 c 0,-37 0,-74 0,-111 96,0 191,0 286,0 v 0 c 95,0 190,0 285,0 0,37 0,74 0,111 -95,0 -190,0 -285,0 v 0 c -95,0 -190,0 -286,0 z"
   id="path3-5" />
  <g
   id="g4">
   <path
   class="fil0"
   d="m 5156,2945 c 60,0 120,0 180,0 0,-58 0,-115 0,-173 -60,0 -120,0 -180,0 v 0 c -60,0 -120,0 -180,0 0,58 0,115 0,173 60,0 120,0 180,0 z m 0,0 z"
   id="path4" />
  </g>
  <path
   class="fil0"
   d="m 4976,2545 c -1,-95 -25,-189 -102,-252 94,0 188,0 282,0 v 0 c 94,0 188,0 282,0 -77,63 -102,157 -102,252 -60,0 -120,0 -180,0 v 0 c -60,0 -120,0 -180,0 z"
   id="path5" />
  <path
   class="fil0"
   d="m 4499,2109 c 0,-27 0,-55 0,-82 219,0 438,0 657,0 v 0 c 219,0 438,0 656,0 0,27 0,55 0,82 -218,0 -437,0 -656,0 v 0 c -219,0 -438,0 -657,0 z"
   id="path6" />
  <path
   class="fil0"
   d="m 4558,2406 c 77,-17 159,-60 214,-113 -76,0 -152,0 -228,0 5,37 9,75 14,113 z"
   id="path7-7" />
  <path
   class="fil0"
   d="m 5754,2406 c -77,-17 -160,-60 -215,-113 77,0 153,0 229,0 -5,37 -10,75 -14,113 z"
   id="path8-6" />
  <path
   class="fil0"
   d="m 4477,1846 c -72,-426 -211,-870 -364,-1162 165,89 341,231 530,424 -79,-21 -157,-37 -235,-49 109,258 199,521 281,787 -71,0 -141,0 -212,0 z"
   id="path9-2" />
  <path
   class="fil0"
   d="m 5835,1846 c 71,-426 210,-870 363,-1162 -164,89 -340,231 -529,424 78,-21 157,-37 235,-49 -109,258 -199,521 -281,787 70,0 141,0 212,0 z"
   id="path10" />
  <path
   class="fil0"
   d="m 4430,1984 c 0,-28 0,-56 0,-83 242,0 484,0 726,0 v 0 c 242,0 484,0 726,0 0,27 0,55 0,83 -242,0 -484,0 -726,0 v 0 c -242,0 -484,0 -726,0 z"
   id="path11" />
  <path
   class="fil0"
   d="m 4911,639 c 112,-193 208,-412 245,-639 36,227 132,446 245,639 -40,-18 -83,-37 -130,-57 -40,-19 -57,-8 -56,34 14,410 74,876 288,1230 -84,0 -168,0 -252,0 -40,-94 -71,-187 -95,-279 -24,92 -56,185 -95,279 -84,0 -168,0 -252,0 214,-354 274,-820 288,-1230 1,-42 -16,-53 -57,-34 -47,20 -89,39 -129,57 z"
   id="path12" />
  <path
   class="fil0"
   d="m 4430,2235 c 0,-28 0,-55 0,-83 242,0 484,0 726,0 v 0 c 242,0 484,0 726,0 0,28 0,55 0,83 -242,0 -484,0 -726,0 v 0 c -242,0 -484,0 -726,0 z"
   id="path13" />
 </g></g></g><g
     inkscape:groupmode="layer"
     id="layer3"
     inkscape:label="Watermark"><g
       id="g18"
       style="fill:#000000;fill-opacity:1"><path
         d="m 1616.6875,738.38672 c -13.7208,-0.0841 -17.6934,10.79297 -17.6934,10.79297 l -11.5722,23.74218 -20.6914,-0.0644 c -4.805,10.37348 -10.875,22.16992 -10.875,22.16992 l 20.7988,-0.0469 -37.1582,75.54101 c -4.7396,13.00495 -15.8418,11.92188 -15.8418,11.92188 l -82.9434,0.004 43.3868,-80.69336 -30.3536,-0.01 c -9.2721,-0.19167 -14.0878,7.92969 -14.0878,7.92969 0.8146,-9.12842 -7.9473,-7.95899 -7.9473,-7.95899 -18.2861,-0.24478 -20.5517,0.16703 -28.0156,0.26563 -43.0531,0.569 -58.918,35.05469 -58.918,35.05469 l -17.9746,33.4375 c -5.8601,13.64378 -16.6856,11.98828 -16.6856,11.98828 l -52.7031,0.16015 c -19.4827,-0.22709 -26.0443,-2.1907 -29.2109,-12.26562 -4.5793,-14.56962 13.0561,-28.4286 25.6445,-36.17383 6.0589,-3.72784 19.8731,-13.47656 19.8731,-13.47656 6.1309,-4.56628 5.919,-6.33116 5.4277,-10.32422 -1.075,-8.73833 -20.8262,-8.58008 -20.8262,-8.58008 l -101.8242,0.25391 c -15.6968,-1.67347 -20.8203,11.46093 -20.8203,11.46093 l -31.0742,57.37305 c -5.0752,12.95646 -16.6133,11.74219 -16.6133,11.74219 l -159.37307,-0.008 6.75,-20.33594 82.69927,-0.0508 c 17.5092,0.0549 22.5195,-13.0625 22.5195,-13.0625 l 9.4238,-22.48047 c 12.0095,-26.60932 -25.9297,-24.75586 -25.9297,-24.75586 l -86.00779,0.34375 c -25.55537,0.88776 -33.25195,21.83594 -33.25195,21.83594 l -18.72266,44.07226 c -6.36738,15.88203 -23.67968,14.48047 -23.67968,14.48047 l -56.66211,-0.043 c 19.58671,-25.37633 4.75,-45.85547 4.75,-45.85547 -12.99378,-25.84785 -56.58008,-34.80859 -56.58008,-34.80859 l -42.36328,-0.20508 -31.98243,58.92188 c -12.78571,23.97321 -40.18164,21.66015 -40.18164,21.66015 l -57.125,0.10938 43.43164,-80.69141 h -30.4707 c -8.61727,-0.57662 -14.00586,7.72071 -14.00586,7.72071 0.70476,-8.39303 -7.125,-7.76172 -7.125,-7.76172 l -29.75586,0.28125 c -42.28006,0.93401 -57.85937,34.91601 -57.85937,34.91601 l -20.06055,37.13477 c -5.24201,9.53438 -15.10742,8.40234 -15.10742,8.40234 l -78.43359,-0.0273 66.39257,-123.41016 c 2.63989,-4.68868 0.0645,-9.60351 0.0645,-9.60351 -2.94318,-6.09143 -9.37891,-6.04493 -9.37891,-6.04493 l -315.50586,0.0469 c -26.459516,-0.0982 -36.970702,22.54883 -36.970702,22.54883 l 134.283202,0.01 -74.77148,138.86328 38.6582,0.0625 74.79883,-138.84179 53.90234,0.0605 -74.79883,138.59571 38.59766,0.12304 74.88672,-138.67968 h 53.73242 l -61.89844,114.74804 c -13.57486,25.19764 13.95703,23.95899 13.95703,23.95899 l 103.05469,0.0801 c 7.71636,0.19859 11.00781,-5.33399 11.00781,-5.33399 0.28369,5.61705 6.83594,5.30469 6.83594,5.30469 l 179.72461,-0.22656 c 45.13129,-0.13544 55.4393,-25.2124 61.30078,-32.4043 8.78756,-15.41606 26.16406,-48.16602 26.16406,-48.16602 54.93363,9.80079 44.64649,39.00586 44.64649,39.00586 -3.98413,17.13111 -19.3174,19.82307 -33.75195,19.88477 -17.70592,1.30548 -24.93164,21.91016 -24.93164,21.91016 l 147.95117,-0.0469 c 6.98185,0.87711 10.60937,-5.33594 10.60937,-5.33594 -0.15459,5.16351 6.89063,5.42383 6.89063,5.42383 l 221.13866,-0.16211 c 18.5729,1.50846 25.7559,-14.17578 25.7559,-14.17578 l 27.2031,-50.20898 c 7.8492,-16.91648 24.2441,-15.80664 24.2441,-15.80664 l 40.7344,-0.0469 c -39.4763,26.79261 -35.166,53.33008 -35.166,53.33008 2.1794,28.34227 27.2539,27.01562 27.2539,27.01562 l 90.4453,-0.0254 c 7.8314,0.931 11.3828,-5.26172 11.3828,-5.26172 -0.1424,5.48913 7.4824,5.29883 7.4824,5.29883 l 189.7208,-0.0273 c 6.4552,0.57228 10.4687,-5.25 10.4687,-5.25 0.036,5.92162 8.1103,5.21741 9.0586,5.32812 7.6379,-0.0329 278.0644,-0.12109 278.0644,-0.12109 15.7266,0.61953 22.3692,-5.625 22.3692,-5.625 6.8535,-5.85137 8.334,-16.93555 8.334,-16.93555 l -132.7168,0.15235 34.6914,-71.12696 -37.8379,-0.008 -30.957,63.11719 c -5.2118,8.97307 -14.1524,8.02539 -14.1524,8.02539 l -93.0801,0.0117 39.752,-80.78125 c 3.7723,-7.08589 11.623,-6.57617 11.623,-6.57617 l 16.8223,-0.0508 c 14.3757,0.56076 18.7598,-9.83789 18.7598,-9.83789 l 6.0273,-12.29687 -39.2363,-0.006 16.916,-34.50781 z m -652.71289,84.01172 c 0.42373,0.002 0.66211,0.0156 0.66211,0.0156 l 44.05668,0.0332 -3.1524,9.52148 c -4.505,12.55373 -17.08788,10.83984 -17.08788,10.83984 l -46.61914,-0.0469 3.4375,-9.84961 c 3.64584,-9.94882 15.73698,-10.52527 18.70313,-10.51367 z m 468.76369,1.96679 -23.6738,44.05664 c -7.949,15.32879 -23.7872,14.00586 -23.7872,14.00586 l -23.08,-0.0352 24.0547,-44.29297 c 7.7971,-14.82311 23.7773,-13.70899 23.7773,-13.70899 z m -858.49025,0.006 -23.67383,44.05664 c -7.94901,15.32878 -23.78711,14.00391 -23.78711,14.00391 l -23.07813,-0.0332 24.05469,-44.29297 c 7.79713,-14.82311 23.77539,-13.70899 23.77539,-13.70899 z"
         style="opacity:1;fill:#000000;stroke:#000000;stroke-width:0.2;fill-opacity:1"
         id="path18" /><path
         style="fill:#000000;stroke:#000000;stroke-width:0.2;fill-opacity:1"
         d="m 1717.2352,796.88899 37.5596,0.0464 10.8869,-22.13964 -22.1397,0.0915 c 0,0 -14.9122,-1.00635 -22.3226,13.63143 z"
         id="path17"
         sodipodi:nodetypes="cccccc" /></g></g><g
     inkscape:groupmode="layer"
     id="layer2"
     inkscape:label="Logo"><g
       id="g19"><path
         d="m 893,502.37 a 0.1,0.1 0 0 1 -0.1,0.13 h -37 a 0.12,0.12 0 0 1 -0.12,-0.1 c -0.62,-3.89 -19.77,-121.81 -64.3,-205.4 0,0 38.91,18.15 92.7,74.19 a 0.11,0.11 0 0 1 -0.1,0.18 c -2.38,-0.72 -15.27,-4.48 -40.43,-8.35 a 0.11,0.11 0 0 0 -0.12,0.14 c 1.84,4.61 40.59,102.71 49.47,139.21 z"
         id="path1" /><path
         d="m 1037.14,501.88 a 0.08,0.08 0 0 1 -0.08,0.12 h -44 a 0.12,0.12 0 0 1 -0.08,0 c -7.55,-14.37 -15.78,-44.66 -16.66,-47.95 0,-0.08 -0.14,-0.09 -0.16,0 -1.11,3.93 -9.56,33.62 -16.67,47.94 a 0.08,0.08 0 0 1 -0.07,0.05 h -44 c -0.06,0 -0.11,-0.07 -0.07,-0.12 2.27,-3.36 49.17,-74.39 50.47,-220.32 0,0 -0.18,-7.75 -9.26,-3.08 -8.4,4.32 -21,9.21 -22.81,9.92 a 0.08,0.08 0 0 1 -0.1,-0.12 c 2.23,-3.63 33.54,-55.27 42.49,-110.93 8.48,56.21 42.65,110.93 42.65,110.93 0,0 0,0.14 -0.1,0.12 -1.83,-0.71 -14.42,-5.6 -22.81,-9.92 -9.08,-4.67 -9.26,3.08 -9.26,3.08 1.38,145.89 48.25,216.92 50.52,220.28 z"
         id="path2" /><path
         d="m 1160.78,297 c -44.52,83.59 -63.67,201.52 -64.3,205.4 a 0.11,0.11 0 0 1 -0.12,0.1 h -36.94 a 0.11,0.11 0 0 1 -0.11,-0.13 c 8.85,-36.5 47.6,-134.6 49.42,-139.21 a 0.11,0.11 0 0 0 -0.12,-0.14 c -25.15,3.87 -38,7.63 -40.42,8.36 a 0.11,0.11 0 0 1 -0.11,-0.19 c 53.79,-56.01 92.7,-74.19 92.7,-74.19 z"
         id="path3" /><rect
         x="847.92999"
         y="512.29999"
         width="256.59"
         height="14.51"
         id="rect3" /><rect
         x="860.10999"
         y="534.52002"
         width="232.22"
         height="14.52"
         id="rect4" /><rect
         x="847.96997"
         y="556.73999"
         width="256.59"
         height="14.52"
         id="rect5" /><rect
         x="925.75"
         y="636.89001"
         width="101.04"
         height="19.26"
         id="rect6" /><rect
         x="944.75"
         y="666.89001"
         width="63.040001"
         height="30.07"
         id="rect7" /><path
         d="m 1008,626 h -63.52 c 0,-31.11 -17.45,-44 -17.45,-44 h 98.47 c -19.39,15.93 -17.5,44 -17.5,44 z"
         id="path7" /><path
         d="m 1084.17,582 a 140.78,140.78 0 0 0 -2.23,19.39 c 0,0 -17,-1.69 -37.38,-19.39 z"
         id="path8" /><path
         d="m 907.71,582 c -20.41,17.7 -37.39,19.39 -37.39,19.39 A 142.1,142.1 0 0 0 868.1,582 Z"
         id="path9" /></g></g></svg>
